# xmcd CD database file
#
# Track frame offsets:
#	150
#	20210
#	38377
#	56793
#	72995
#	91634
#	104758
#	118772
#	137511
#	156759
#	173069
#	188560
#	207518
#	224584
#	242095
#	258624
#	273817
#	291808
#	308030
#	332143
#
# Disc length: 4682 seconds
#
# Revision: 0
# Processed by: cddbd v1.5.2PL0 Copyright (c) Steve Scherf et al.
# Submitted via: CDex 1.50
#
DISCID=2b124814
DTITLE=Gilberto Santa Rosa - Romantico
DYEAR=2010
DGENRE=Salsa
TTITLE0=A la distancia de un te quiero-Gilberto Santa Rosa
TTITLE1=Nuestro balance-Gilberto Santa Rosa
TTITLE2=Por Mas Que Intento-Gilberto Santa Rosa
TTITLE3=Pueden decir-Gilberto Santa Rosa
TTITLE4=Que alguien me diga-Gilberto Santa Rosa
TTITLE5=Se  Puede-Gilberto Santa Rosa
TTITLE6=Sera-Gilberto Santa Rosa
TTITLE7=Si Te Dijeron-Gilberto Santa Rosa
TTITLE8=Tiemblas-Gilberto Santa Rosa
TTITLE9=Un Amor Para La Historia-Gilberto Santa Rosa
TTITLE10=Amiga  Mia-Gilberto Santa Rosa
TTITLE11=Mis Ojos Lloran-Gilberto Santa Rosa
TTITLE12=Como He Podido Estar Sin Ti-Gilberto Santa Rosa
TTITLE13=En la obscuridad-Gilberto Santa Rosa
TTITLE14=En la soledad-Gilberto Santa Rosa
TTITLE15=Mentira-Gilberto Santa Rosa
TTITLE16=Mio-Gilberto Santa Rosa
TTITLE17=Monologo-Gilberto Santa Rosa
TTITLE18=No Pense Enamorarme Otra  Vez-Gilberto Santa Rosa
TTITLE19=Para vivir-Gilberto Santa Rosa
EXTD=YEAR: 2010
EXTT0=
EXTT1=
EXTT2=
EXTT3=
EXTT4=
EXTT5=
EXTT6=
EXTT7=
EXTT8=
EXTT9=
EXTT10=
EXTT11=
EXTT12=
EXTT13=
EXTT14=
EXTT15=
EXTT16=
EXTT17=
EXTT18=
EXTT19=
PLAYORDER=
